<svg width="160" height="64" viewBox="0 0 160 64" fill="none" xmlns="http://www.w3.org/2000/svg">
<path d="M26.8863 46.4516C26.8359 51.9165 28.0443 56.167 30.5114 59.203C32.9785 62.2391 36.2764 63.7571 40.405 63.7571H51.96C52.4635 63.7571 52.7153 63.4535 52.7153 62.8463V0.910813C52.7153 0.303602 52.4635 0 51.96 0H41.0847C36.7547 0 33.3561 1.45731 30.889 4.37192C28.4219 7.22581 27.1884 11.3245 27.1884 16.6679C27.1884 23.4687 29.2779 28.1138 33.4568 30.6034C33.5575 30.6641 33.6079 30.7249 33.6079 30.7856C33.6079 30.8463 33.5827 30.907 33.5323 30.9677C29.1016 34.0645 26.8863 39.2258 26.8863 46.4516ZM47.051 5.64706C47.2524 5.64706 47.3531 5.7685 47.3531 6.01139V27.962C47.3531 28.2049 47.2524 28.3264 47.051 28.3264H41.0847C38.3658 28.3264 36.2512 27.3548 34.7407 25.4118C33.2302 23.4687 32.475 20.7362 32.475 17.2144C32.475 13.5712 33.2302 10.7476 34.7407 8.74383C36.2512 6.67932 38.3658 5.64706 41.0847 5.64706H47.051ZM40.7826 58.019C38.1141 58.019 36.0246 56.9563 34.5141 54.8311C33.0037 52.6452 32.2484 49.6091 32.2484 45.723C32.2484 41.7761 33.0037 38.7097 34.5141 36.5237C36.0246 34.3378 38.1141 33.2448 40.7826 33.2448H47.051C47.2524 33.2448 47.3531 33.3662 47.3531 33.6091V57.6546C47.3531 57.8975 47.2524 58.019 47.051 58.019H40.7826Z" fill="white"/>
<path d="M0.755234 63.7571C0.251745 63.7571 0 63.4535 0 62.8463V0.910813C0 0.303602 0.251745 0 0.755234 0H12.3858C16.2627 0 19.3592 1.54839 21.6752 4.64516C23.9913 7.68121 25.1493 11.7799 25.1493 16.9412V46.8159C25.1493 51.9772 23.9913 56.1063 21.6752 59.203C19.3592 62.2391 16.2627 63.7571 12.3858 63.7571H0.755234ZM5.36216 57.7457C5.36216 57.9886 5.46286 58.11 5.66425 58.11L12.3103 58.019C14.5257 58.019 16.2879 56.9867 17.5969 54.9222C18.9564 52.8577 19.6613 50.0645 19.7116 46.5427V17.2144C19.7116 13.6319 19.0571 10.8083 17.748 8.74383C16.4389 6.67932 14.6264 5.64706 12.3103 5.64706H5.66425C5.46286 5.64706 5.36216 5.7685 5.36216 6.01139V57.7457Z" fill="white"/>
<path d="M64.7738 42.5048C64.9417 42.5048 65.0256 42.6059 65.0256 42.8084V44.0835C65.0256 44.286 64.9417 44.3871 64.7738 44.3871H61.4508C61.3836 44.3871 61.3501 44.4275 61.3501 44.5086V63.4535C61.3501 63.656 61.2663 63.7571 61.0983 63.7571H59.8144C59.6465 63.7571 59.5627 63.656 59.5627 63.4535V44.5086C59.5627 44.4275 59.5292 44.3871 59.462 44.3871H56.3404C56.1725 44.3871 56.0886 44.286 56.0886 44.0835V42.8084C56.0886 42.6059 56.1725 42.5048 56.3404 42.5048H64.7738ZM75.6706 44.0835C75.6706 44.286 75.5867 44.3871 75.4188 44.3871H69.5784C69.5111 44.3871 69.4777 44.4275 69.4777 44.5086V52.038C69.4777 52.119 69.5111 52.1594 69.5784 52.1594H73.2538C73.4217 52.1594 73.5056 52.2605 73.5056 52.463V53.7685C73.5056 53.971 73.4217 54.0721 73.2538 54.0721H69.5784C69.5111 54.0721 69.4777 54.1125 69.4777 54.1936V61.7533C69.4777 61.8344 69.5111 61.8748 69.5784 61.8748H75.4188C75.5867 61.8748 75.6706 61.9759 75.6706 62.1784V63.4535C75.6706 63.656 75.5867 63.7571 75.4188 63.7571H67.942C67.7741 63.7571 67.6903 63.656 67.6903 63.4535V42.8084C67.6903 42.6059 67.7741 42.5048 67.942 42.5048H75.4188C75.5867 42.5048 75.6706 42.6059 75.6706 42.8084V44.0835ZM82.3345 64C81.0423 64 80.0018 63.5243 79.2129 62.5731C78.441 61.6219 78.0549 60.3467 78.0549 58.7476V47.4839C78.0549 45.9051 78.441 44.64 79.2129 43.6888C80.0018 42.7376 81.0423 42.2619 82.3345 42.2619C83.6436 42.2619 84.6843 42.7376 85.4561 43.6888C86.2451 44.62 86.6393 45.8848 86.6393 47.4839V48C86.6393 48.2025 86.5555 48.3036 86.3876 48.3036L85.0785 48.3947C84.9109 48.3947 84.8268 48.2936 84.8268 48.0911V47.3321C84.8268 46.3809 84.6002 45.6115 84.1471 45.0247C83.6939 44.4378 83.0897 44.1442 82.3345 44.1442C81.5961 44.1442 80.992 44.4378 80.5219 45.0247C80.0688 45.6115 79.8422 46.3809 79.8422 47.3321V58.9298C79.8422 59.881 80.0688 60.6503 80.5219 61.2372C80.992 61.8241 81.5961 62.1177 82.3345 62.1177C83.0897 62.1177 83.6939 61.8241 84.1471 61.2372C84.6002 60.6503 84.8268 59.881 84.8268 58.9298V58.1708C84.8268 57.9683 84.9109 57.8672 85.0785 57.8672L86.3876 57.9583C86.5555 57.9583 86.6393 58.0594 86.6393 58.2619V58.7476C86.6393 60.3467 86.2451 61.6219 85.4561 62.5731C84.6674 63.5243 83.627 64 82.3345 64ZM96.7668 42.8084C96.7668 42.6059 96.8506 42.5048 97.0185 42.5048H98.2772C98.4452 42.5048 98.529 42.6059 98.529 42.8084V63.4535C98.529 63.656 98.4452 63.7571 98.2772 63.7571H96.7919C96.6578 63.7571 96.5654 63.6761 96.515 63.5142L91.606 47.8178C91.5891 47.7571 91.564 47.7368 91.5305 47.7571C91.497 47.7571 91.4801 47.7875 91.4801 47.8482L91.5053 63.4535C91.5053 63.656 91.4215 63.7571 91.2536 63.7571H89.9697C89.8018 63.7571 89.7179 63.656 89.7179 63.4535V42.8084C89.7179 42.6059 89.8018 42.5048 89.9697 42.5048H91.4298C91.564 42.5048 91.6564 42.5858 91.7067 42.7476L96.6409 58.4744C96.6578 58.5351 96.6829 58.5655 96.7164 58.5655C96.7499 58.5451 96.7668 58.5048 96.7668 58.444V42.8084ZM106.035 64C104.743 64 103.694 63.5142 102.888 62.5427C102.099 61.5712 101.705 60.286 101.705 58.6869V47.575C101.705 45.9759 102.099 44.6907 102.888 43.7192C103.694 42.7476 104.743 42.2619 106.035 42.2619C107.344 42.2619 108.402 42.7476 109.207 43.7192C110.013 44.6907 110.416 45.9759 110.416 47.575V58.6869C110.416 60.2657 110.013 61.5508 109.207 62.5427C108.402 63.5142 107.344 64 106.035 64ZM106.035 62.1177C106.807 62.1177 107.428 61.8141 107.898 61.2068C108.385 60.5793 108.628 59.7799 108.628 58.8084V47.4839C108.628 46.492 108.385 45.6926 107.898 45.0854C107.428 44.4578 106.807 44.1442 106.035 44.1442C105.28 44.1442 104.667 44.4578 104.198 45.0854C103.728 45.6926 103.493 46.492 103.493 47.4839V58.8084C103.493 59.7799 103.728 60.5793 104.198 61.2068C104.667 61.8141 105.28 62.1177 106.035 62.1177ZM113.866 63.7571C113.698 63.7571 113.614 63.656 113.614 63.4535V42.8084C113.614 42.6059 113.698 42.5048 113.866 42.5048H115.15C115.318 42.5048 115.401 42.6059 115.401 42.8084V61.7533C115.401 61.8344 115.435 61.8748 115.502 61.8748H121.267C121.435 61.8748 121.519 61.9759 121.519 62.1784V63.4535C121.519 63.656 121.435 63.7571 121.267 63.7571H113.866ZM127.473 64C126.18 64 125.132 63.5142 124.326 62.5427C123.537 61.5712 123.143 60.286 123.143 58.6869V47.575C123.143 45.9759 123.537 44.6907 124.326 43.7192C125.132 42.7476 126.18 42.2619 127.473 42.2619C128.782 42.2619 129.839 42.7476 130.645 43.7192C131.45 44.6907 131.853 45.9759 131.853 47.575V58.6869C131.853 60.2657 131.45 61.5508 130.645 62.5427C129.839 63.5142 128.782 64 127.473 64ZM127.473 62.1177C128.245 62.1177 128.866 61.8141 129.336 61.2068C129.822 60.5793 130.066 59.7799 130.066 58.8084V47.4839C130.066 46.492 129.822 45.6926 129.336 45.0854C128.866 44.4578 128.245 44.1442 127.473 44.1442C126.718 44.1442 126.105 44.4578 125.635 45.0854C125.165 45.6926 124.93 46.492 124.93 47.4839V58.8084C124.93 59.7799 125.165 60.5793 125.635 61.2068C126.105 61.8141 126.718 62.1177 127.473 62.1177ZM138.903 64C137.611 64 136.579 63.5446 135.807 62.6338C135.035 61.7026 134.649 60.4682 134.649 58.9298V47.3321C134.649 45.7937 135.035 44.5693 135.807 43.6585C136.579 42.7273 137.611 42.2619 138.903 42.2619C140.196 42.2619 141.228 42.7273 142 43.6585C142.789 44.5896 143.183 45.8241 143.183 47.3624V48.6679C143.183 48.8704 143.099 48.9715 142.931 48.9715H141.647C141.48 48.9715 141.396 48.8704 141.396 48.6679V47.3017C141.396 46.3505 141.169 45.5915 140.716 45.0247C140.263 44.4378 139.659 44.1442 138.903 44.1442C138.165 44.1442 137.561 44.4378 137.091 45.0247C136.638 45.6115 136.411 46.3706 136.411 47.3017V58.9602C136.411 59.8913 136.638 60.6503 137.091 61.2372C137.561 61.8241 138.165 62.1177 138.903 62.1177C139.659 62.1177 140.263 61.8344 140.716 61.2676C141.169 60.6807 141.396 59.9114 141.396 58.9602V55.074C141.396 54.9929 141.362 54.9526 141.295 54.9526H139.13C138.962 54.9526 138.878 54.8515 138.878 54.649V53.3738C138.878 53.1713 138.962 53.0702 139.13 53.0702H142.931C143.099 53.0702 143.183 53.1713 143.183 53.3738V58.9298C143.183 60.4682 142.789 61.7026 142 62.6338C141.228 63.5446 140.196 64 138.903 64ZM146.661 63.7571C146.494 63.7571 146.41 63.656 146.41 63.4535V42.8084C146.41 42.6059 146.494 42.5048 146.661 42.5048H147.945C148.113 42.5048 148.197 42.6059 148.197 42.8084V63.4535C148.197 63.656 148.113 63.7571 147.945 63.7571H146.661ZM158.464 63.7571C158.313 63.7571 158.221 63.666 158.187 63.4839L157.558 59.7192C157.558 59.6788 157.541 59.6484 157.508 59.6281C157.491 59.6077 157.466 59.5977 157.432 59.5977H152.876C152.842 59.5977 152.808 59.6077 152.775 59.6281C152.758 59.6484 152.75 59.6788 152.75 59.7192L152.12 63.4839C152.104 63.666 152.011 63.7571 151.843 63.7571H150.56C150.476 63.7571 150.409 63.7268 150.358 63.666C150.325 63.6053 150.316 63.5243 150.333 63.4232L154.109 42.778C154.143 42.5958 154.235 42.5048 154.386 42.5048H155.897C156.064 42.5048 156.157 42.5958 156.173 42.778L160 63.4232V63.4839C160 63.666 159.924 63.7571 159.773 63.7571H158.464ZM153.077 57.7154C153.077 57.7964 153.102 57.8368 153.153 57.8368H157.13C157.18 57.8368 157.206 57.7964 157.206 57.7154L155.192 45.7837C155.175 45.723 155.158 45.6926 155.141 45.6926C155.124 45.6926 155.108 45.723 155.091 45.7837L153.077 57.7154Z" fill="white"/>
</svg>
